<?xml version="1.0" encoding="UTF-8"?>
<!DOCTYPE svg PUBLIC "-//W3C//DTD SVG 1.1//EN" "http://www.w3.org/Graphics/SVG/1.1/DTD/svg11.dtd">
<!-- Creator: CorelDRAW 2020 (64-Bit) -->
<svg xmlns="http://www.w3.org/2000/svg" xml:space="preserve" width="64.5583mm" height="102.631mm" version="1.1" style="shape-rendering:geometricPrecision; text-rendering:geometricPrecision; image-rendering:optimizeQuality; fill-rule:evenodd; clip-rule:evenodd"
viewBox="0 0 8485.3 13489.44"
 xmlns:xlink="http://www.w3.org/1999/xlink"
 xmlns:xodm="http://www.corel.com/coreldraw/odm/2003">
 <defs>
  <style type="text/css">
   <![CDATA[
    .fil3 {fill:#0057B8}
    .fil0 {fill:#117DF7}
    .fil1 {fill:gold}
    .fil2 {fill:#0057B8;fill-rule:nonzero}
   ]]>
  </style>
 </defs>
 <g id="Слой_x0020_1">
  <metadata id="CorelCorpID_0Corel-Layer"/>
  <path class="fil0" d="M-0 2553.25l0 1144.85 288.02 0c341.48,0 298.95,153.33 311.48,408.25l0 9383.08 7616.44 0 0 -13158.55 -8215.93 2222.36z"/>
  <path class="fil1" d="M269.37 2222.36l0 1144.85 288.02 0c341.48,0 298.95,153.35 311.48,408.27l0 9713.96 7616.44 0 0 -13489.44 -8215.93 2222.36z"/>
  <path class="fil2" d="M2715.38 5308l235.89 0c110.39,0 185.05,-74.66 185.05,-179.5 0,-104.83 -74.66,-181.08 -185.05,-181.08l-96.89 0 0 -88.15 230.33 0 0 -119.13 -369.32 0 0 567.87zm138.99 -119.13l0 -122.31 68.29 0c48.46,0 72.28,26.21 72.28,61.95 0,35.75 -23.82,60.37 -69.88,60.37l-70.69 0z"/>
  <path id="1" class="fil2" d="M3196.69 5274.64c39.71,27.8 79.43,42.89 129.46,42.89 100.06,0 143.75,-84.99 169.96,-151.69l167.58 -425.71 -146.13 0 -69.9 204.91c-13.5,39.71 -22.24,75.44 -22.24,75.44l-1.59 0c0,0 -11.91,-35.74 -30.97,-76.25l-94.52 -204.11 -152.49 0 219.21 429.68c-7.95,19.06 -23.04,29.39 -45.28,29.39 -26.21,0 -47.65,-15.89 -62.73,-28.6l-60.37 104.04z"/>
  <path id="2" class="fil2" d="M3824.12 5189.65c46.87,-87.37 61.96,-213.64 61.96,-304.18l0 -26.21 113.57 0 0 330.39 -175.53 0zm-200.94 0l0 229.54 127.87 0 0 -111.2 328.03 0 0 111.2 123.1 0 0 -229.54 -63.54 0 0 -449.52 -384.41 0 0 134.22c0,102.45 -14.3,214.44 -72.28,315.3l-58.78 0z"/>
  <path id="3" class="fil2" d="M4272.87 5274.64c39.71,27.8 79.43,42.89 129.46,42.89 100.06,0 143.75,-84.99 169.96,-151.69l167.58 -425.71 -146.13 0 -69.9 204.91c-13.5,39.71 -22.24,75.44 -22.24,75.44l-1.59 0c0,0 -11.91,-35.74 -30.97,-76.25l-94.52 -204.11 -152.49 0 219.21 429.68c-7.95,19.06 -23.04,29.39 -45.28,29.39 -26.21,0 -47.65,-15.89 -62.73,-28.6l-60.37 104.04z"/>
  <path id="4" class="fil2" d="M5038.5 4714.71c80.22,0 150.11,-43.68 150.11,-121.51l0 -8.74 -100.86 0 0 9.53c0,32.57 -26.21,46.86 -49.25,46.86 -23.83,0 -49.24,-14.29 -49.24,-46.86l0 -9.53 -101.67 0 0 8.74c0,77.84 69.9,121.51 150.9,121.51l0 0zm-247.8 593.29l139.78 0 158.05 -264.48c22.24,-37.33 47.66,-96.89 47.66,-96.89l1.59 0c0,0 -6.36,61.16 -6.36,96.89l0 264.48 138.99 0 0 -567.87 -140.58 0 -157.25 265.26c-22.24,37.33 -47.66,96.89 -47.66,96.89l-1.59 0c0,0 6.36,-61.14 6.36,-96.89l0 -265.26 -138.99 0 0 567.87z"/>
  <polygon id="5" class="fil2" points="5512.66,5308 5651.65,5308 5651.65,4859.26 5824,4859.26 5824,4740.13 5340.32,4740.13 5340.32,4859.26 5512.66,4859.26 "/>
  <path id="6" class="fil2" d="M5863.71 5022.87c0,168.37 119.92,294.65 297.83,294.65 148.52,0 229.53,-91.34 229.53,-91.34l-67.51 -98.49c0,0 -69.9,64.34 -155.67,64.34 -92.93,0 -139.78,-47.66 -155.66,-112.79l234.3 0 0 -111.2 -234.3 0c17.47,-61.16 67.51,-111.98 155.66,-111.98 78.64,0 142.17,59.57 142.17,59.57l64.32 -104.83c0,0 -72.26,-80.22 -212.85,-80.22 -187.44,0 -297.83,131.04 -297.83,292.27z"/>
  <path class="fil2" d="M5046.49 5974.81l148.12 0 18.51 -270.97c3.36,-45.45 0,-100.98 0,-100.98l1.68 0c0,0 20.2,63.1 33.66,100.98l63.12 174.19 126.23 0 63.12 -174.19c13.47,-37.88 33.66,-100.98 33.66,-100.98l1.68 0c0,0 -3.36,55.53 0,100.98l18.52 270.97 147.26 0 -48.8 -601.7 -159.89 0 -87.52 254.15c-13.46,38.71 -30.3,99.3 -30.3,99.3l-1.68 0c0,0 -16.82,-60.59 -30.3,-99.3l-87.51 -254.15 -159.89 0 -49.66 601.7z"/>
  <path id="1" class="fil2" d="M5805.56 5974.81l147.27 0 0 -185.98 102.66 0c116.97,0 196.08,-87.51 196.08,-208.69 0,-121.18 -79.11,-207.03 -196.08,-207.03l-249.94 0 0 601.7zm147.27 -312.21l0 -163.26 74.89 0c48.8,0 74.05,32.82 74.05,80.79 0,47.96 -25.25,82.46 -76.57,82.46l-72.37 0z"/>
  <polygon id="2" class="fil2" points="6331.52,5974.81 6478.79,5974.81 6478.79,5373.11 6331.52,5373.11 "/>
  <path id="3" class="fil2" d="M6605.01 5974.81l147.27 0 0 -235.63 82.46 0c28.61,142.21 144.75,245.72 300.42,245.72 180.09,0 309.69,-138.01 309.69,-314.72 0,-172.52 -129.6,-307.17 -309.69,-307.17 -159.89,0 -278.54,106.03 -302.95,250.78l-79.94 0 0 -240.69 -147.27 0 0 601.7zm372.79 -304.63c0,-98.46 69.02,-172.52 157.37,-172.52 88.36,0 157.37,74.06 157.37,172.52 0,102.66 -69,180.08 -157.37,180.08 -88.35,0 -157.37,-77.42 -157.37,-180.08l0 0z"/>
  <path class="fil2" d="M2715.33 6974.1l236.35 0 163.64 -292.12 77.57 0 0 292.12 212.11 0 0 -866.64 -301.8 0c-88.48,0 -130.91,6.06 -168.49,20.61 -92.11,35.15 -160,122.42 -160,255.75 0,104.24 41.22,202.41 139.39,256.96l0 2.42c0,0 -8.48,12.13 -32.71,52.13l-166.06 278.78zm385.44 -467.86c-67.87,0 -110.3,-33.94 -110.3,-111.51 0,-31.52 7.28,-63.04 29.09,-81.21 19.4,-15.76 52.13,-24.24 101.82,-24.24l71.51 0 0 216.96 -92.12 0z"/>
  <polygon id="1" class="fil2" points="3586.8,6974.1 3798.91,6974.1 3798.91,6622.6 3886.19,6622.6 4069.21,6974.1 4306.78,6974.1 4059.51,6524.41 4059.51,6521.99 4293.44,6107.46 4065.57,6107.46 3886.19,6441.99 3798.91,6441.99 3798.91,6107.46 3586.8,6107.46 "/>
  <polygon id="2" class="fil2" points="4404.95,6974.1 4617.06,6974.1 4617.06,6107.46 4404.95,6107.46 "/>
  <path id="3" class="fil2" d="M4752.82 6538.96c0,256.96 175.76,449.68 454.53,449.68 158.77,0 272.72,-66.66 349.08,-145.46l-109.09 -155.13c-59.4,59.38 -144.24,106.66 -230.29,106.66 -167.28,0 -244.84,-132.12 -244.84,-260.6 0,-124.85 71.5,-247.27 244.84,-247.27 77.57,0 161.21,40.01 216.96,88.48l98.17 -159.98c-84.84,-83.65 -208.47,-122.42 -324.83,-122.42 -267.87,0 -454.53,193.92 -454.53,446.04z"/>
  <polygon id="4" class="fil2" points="5664.31,6974.1 5876.42,6974.1 5876.42,6634.71 6191.56,6634.71 6191.56,6974.1 6403.68,6974.1 6403.68,6107.46 6191.56,6107.46 6191.56,6454.11 5876.42,6454.11 5876.42,6107.46 5664.31,6107.46 "/>
  <path id="5" class="fil2" d="M6538.23 6535.32c0,254.54 191.5,453.32 453.31,453.32 261.81,0 453.32,-198.78 453.32,-453.32 0,-248.48 -191.52,-442.4 -453.32,-442.4 -261.81,0 -453.31,193.92 -453.31,442.4zm219.38 0c0,-141.81 104.24,-248.48 233.93,-248.48 129.7,0 233.93,106.67 233.93,248.48 0,147.88 -104.23,259.39 -233.93,259.39 -129.69,0 -233.93,-111.51 -233.93,-259.39z"/>
  <path class="fil2" d="M2744.98 8542.18c0,101.82 69.63,178.17 180.09,178.17 62.92,0 108.07,-26.41 138.32,-57.62l-43.23 -61.47c-23.53,23.53 -57.15,42.26 -91.24,42.26 -66.28,0 -97.01,-52.35 -97.01,-103.26 0,-49.47 28.34,-97.97 97.01,-97.97 30.73,0 63.88,15.85 85.96,35.05l38.91 -63.39c-33.62,-33.14 -82.61,-48.51 -128.72,-48.51 -106.13,0 -180.09,76.85 -180.09,176.74z"/>
  <polygon id="1" class="fil2" points="3106.14,8714.6 3190.19,8714.6 3190.19,8442.76 3312.18,8442.76 3312.18,8714.6 3396.23,8714.6 3396.23,8371.21 3106.14,8371.21 "/>
  <polygon id="2" class="fil2" points="3468.26,8714.6 3690.15,8714.6 3690.15,8642.56 3552.31,8642.56 3552.31,8577.72 3657.01,8577.72 3657.01,8505.68 3552.31,8505.68 3552.31,8443.25 3683.42,8443.25 3683.42,8371.21 3468.26,8371.21 "/>
  <polygon id="3" class="fil2" points="3744.89,8714.6 3999.92,8714.6 3999.92,8781.84 4074.36,8781.84 4074.36,8643.05 4032.09,8643.05 4032.09,8371.21 3948.05,8371.21 3948.05,8643.05 3828.95,8643.05 3828.95,8371.21 3744.89,8371.21 "/>
  <polygon id="4" class="fil2" points="4125.74,8714.6 4209.8,8714.6 4209.8,8371.21 4125.74,8371.21 "/>
  <path id="5" class="fil2" d="M4244.36 8714.6l86.46 0 20.65 -72.04 107.09 0 21.13 72.04 86.45 0 -116.7 -343.39 -88.36 0 -116.72 343.39zm126.8 -139.28l19.69 -66.76c6.24,-21.61 13.93,-59.07 13.93,-59.07l0.96 0c0,0 7.68,37.46 13.92,59.07l19.22 66.76 -67.72 0z"/>
  <path id="6" class="fil2" d="M4572.4 8642.07l0 76.36c96.53,0 148.39,-64.35 148.39,-233.4l0 -41.78 66.77 0 0 271.35 84.04 0 0 -343.39 -230.53 0 0 112.86c0,122.95 -27.85,152.73 -68.68,158z"/>
  <polygon id="7" class="fil2" points="4943.64,8714.6 5027.7,8714.6 5027.7,8371.21 4943.64,8371.21 "/>
  <path id="8" class="fil2" d="M5070.91 8668.02c33.14,34.09 78.77,52.34 125.84,52.34 65.31,0 122.46,-38.89 122.46,-105.65 0,-37.46 -20.65,-64.84 -53.78,-76.36l0 -0.96c22.09,-12.97 44.66,-35.54 44.66,-74.92 0,-66.77 -59.55,-97.03 -109.99,-97.03 -39.38,0 -81.16,8.65 -119.11,40.35l32.19 60.03c23.53,-18.73 49.46,-28.34 71.08,-28.34 25.45,0 40.34,14.89 40.34,36.03 0,18.24 -14.41,34.58 -39.86,34.58l-33.62 0 0 66.76 41.31 0c27.85,0 40.34,13.45 40.34,33.62 0,24.97 -15.85,38.42 -45.15,38.42 -28.81,0 -55.7,-17.3 -73,-34.09l-43.7 55.23z"/>
  <path id="9" class="fil2" d="M5359.07 8694.42c24.01,16.81 48.03,25.93 78.28,25.93 60.51,0 86.93,-51.38 102.78,-91.73l101.34 -257.42 -88.38 0 -42.26 123.9c-8.16,24.01 -13.45,45.63 -13.45,45.63l-0.96 0c0,0 -7.22,-21.62 -18.73,-46.11l-57.16 -123.43 -92.2 0 132.55 259.82c-4.81,11.53 -13.93,17.77 -27.38,17.77 -15.85,0 -28.82,-9.61 -37.95,-17.28l-36.5 62.91z"/>
  <path id="10" class="fil2" d="M5644.83 8542.18c0,101.82 72.53,178.17 180.09,178.17 89.81,0 138.81,-55.23 138.81,-55.23l-40.82 -59.55c0,0 -42.27,38.91 -94.13,38.91 -56.19,0 -84.53,-28.81 -94.13,-68.2l141.68 0 0 -67.23 -141.68 0c10.57,-36.99 40.82,-67.72 94.13,-67.72 47.54,0 85.96,36.01 85.96,36.01l38.91 -63.39c0,0 -43.7,-48.51 -128.72,-48.51 -113.34,0 -180.09,79.26 -180.09,176.74z"/>
  <path id="11" class="fil2" d="M5993.5 8714.6l84.53 0 10.57 -154.65c1.92,-25.93 0,-57.63 0,-57.63l0.96 0c0,0 11.53,36.03 19.22,57.63l36.01 99.42 72.04 0 36.03 -99.42c7.69,-21.61 19.22,-57.63 19.22,-57.63l0.96 0c0,0 -1.93,31.7 0,57.63l10.57 154.65 84.04 0 -27.85 -343.39 -91.26 0 -49.95 145.04c-7.69,22.09 -17.28,56.68 -17.28,56.68l-0.97 0c0,0 -9.59,-34.58 -17.28,-56.68l-49.95 -145.04 -91.26 0 -28.34 343.39z"/>
  <path id="12" class="fil2" d="M6407.97 8540.75c0,100.85 75.89,179.61 179.62,179.61 103.74,0 179.62,-78.76 179.62,-179.61 0,-98.46 -75.88,-175.31 -179.62,-175.31 -103.73,0 -179.62,76.85 -179.62,175.31zm86.93 0c0,-56.2 41.31,-98.46 92.69,-98.46 51.39,0 92.7,42.26 92.7,98.46 0,58.58 -41.31,102.77 -92.7,102.77 -51.38,0 -92.69,-44.19 -92.69,-102.77z"/>
  <path id="13" class="fil2" d="M6802.28 8542.18c0,101.82 69.63,178.17 180.09,178.17 62.92,0 108.07,-26.41 138.32,-57.62l-43.23 -61.47c-23.53,23.53 -57.15,42.26 -91.24,42.26 -66.28,0 -97.01,-52.35 -97.01,-103.26 0,-49.47 28.34,-97.97 97.01,-97.97 30.73,0 63.88,15.85 85.96,35.05l38.91 -63.39c-33.62,-33.14 -82.61,-48.51 -128.72,-48.51 -106.13,0 -180.09,76.85 -180.09,176.74z"/>
  <path id="14" class="fil2" d="M7127.9 8714.6l93.66 0 64.84 -115.74 30.73 0 0 115.74 84.05 0 0 -343.39 -119.59 0c-35.05,0 -51.86,2.41 -66.76,8.16 -36.5,13.93 -63.39,48.51 -63.39,101.34 0,41.3 16.32,80.2 55.23,101.82l0 0.96c0,0 -3.36,4.8 -12.97,20.65l-65.8 110.46zm152.73 -185.38c-26.89,0 -43.7,-13.46 -43.7,-44.19 0,-12.49 2.88,-24.97 11.53,-32.18 7.68,-6.24 20.65,-9.61 40.34,-9.61l28.34 0 0 85.97 -36.5 0z"/>
  <g id="_3041863218656">
   <path class="fil2" d="M3135.12 10047.85l145.25 0c68.98,0 117.77,-47.11 117.77,-117.77 0,-76.27 -51.02,-119.46 -120.57,-119.46l-86.93 0 0 -110.47 178.35 0 0 -48.24 -233.86 0 0 395.94zm55.52 -48.22l0 -140.77 79.64 0c43.74,0 71.79,27.48 71.79,71.23 0,43.18 -26.37,69.54 -70.67,69.54l-80.75 0z"/>
   <path id="1" class="fil2" d="M3464.32 10028.78c21.87,15.14 45.42,25.8 72.34,25.8 49.35,0 74.59,-39.81 90.3,-79.64l126.18 -323.03 -58.32 0 -73.47 199.65c-8.41,24.12 -16.82,51.6 -16.82,51.6l-1.12 0c0,0 -10.09,-27.48 -22.44,-52.15l-96.46 -199.1 -61.13 0 156.47 310.14c-10.66,27.48 -21.87,44.31 -44.87,44.31 -19.06,0 -35.88,-12.34 -45.42,-19.64l-25.24 42.06z"/>
   <path id="2" class="fil2" d="M3832.21 9999.63c46.54,-71.23 56.08,-176.1 56.08,-263.03l0 -36.45 123.93 0 0 299.48 -180.02 0zm-98.14 0l0 126.74 51.59 0 0 -78.52 275.92 0 0 78.52 49.92 0 0 -126.74 -43.76 0 0 -347.71 -231.6 0 0 81.32c0,86.37 -7.29,188.99 -62.26,266.39l-39.81 0z"/>
   <polygon id="3" class="fil2" points="4186.64,10047.85 4242.16,10047.85 4242.16,9651.91 4186.64,9651.91 "/>
   <path id="4" class="fil2" d="M4347.03 10047.85l141.89 0c69.54,0 127.86,-38.13 127.86,-112.72 0,-44.31 -23.55,-83.57 -65.61,-95.9l0 -1.13c30.28,-15.71 49.35,-46.54 49.35,-85.24 0,-63.94 -47.67,-100.96 -114.97,-100.96l-138.52 0 0 395.94zm55.52 -229.37l0 -118.33 82.44 0c37.58,0 58.9,23.55 58.9,58.32 0,34.78 -22.44,60.01 -58.33,60.01l-83 0zm0 181.15l0 -135.16 89.17 0c41.51,0 67.86,27.47 67.86,67.3 0,40.93 -25.24,67.86 -67.86,67.86l-89.17 0z"/>
   <polygon id="5" class="fil2" points="4696.98,10047.85 4752.5,10047.85 4752.5,9874 4958.31,9874 4958.31,10047.85 5013.28,10047.85 5013.28,9651.91 4958.31,9651.91 4958.31,9825.76 4752.5,9825.76 4752.5,9651.91 4696.98,9651.91 "/>
   <path id="6" class="fil2" d="M5117.59 10047.85l54.4 0 176.65 -256.85c14.02,-21.87 33.1,-57.77 33.1,-57.77l1.12 0c0,0 -3.36,35.33 -3.36,57.77l0 256.85 54.97 0 0 -395.94 -54.4 0 -175.53 256.3c-14.02,21.31 -33.65,58.32 -33.65,58.32l-1.13 0c0,0 3.36,-35.33 3.36,-57.77l0 -256.85 -55.52 0 0 395.94z"/>
   <polygon id="7" class="fil2" points="5539.31,10047.85 5839.91,10047.85 5839.91,10126.37 5889.83,10126.37 5889.83,9999.63 5844.4,9999.63 5844.4,9651.91 5788.87,9651.91 5788.87,9999.63 5594.83,9999.63 5594.83,9651.91 5539.31,9651.91 "/>
   <polygon id="8" class="fil2" points="6050.2,10047.85 6105.17,10047.85 6105.17,9700.15 6241.44,9700.15 6241.44,9651.91 5913.93,9651.91 5913.93,9700.15 6050.2,9700.15 "/>
   <path id="9" class="fil2" d="M6302.58 10047.85l141.89 0c69.54,0 127.86,-38.13 127.86,-112.72 0,-44.31 -23.55,-83.57 -65.61,-95.9l0 -1.13c30.28,-15.71 49.35,-46.54 49.35,-85.24 0,-63.94 -47.67,-100.96 -114.97,-100.96l-138.52 0 0 395.94zm55.52 -229.37l0 -118.33 82.44 0c37.58,0 58.9,23.55 58.9,58.32 0,34.78 -22.44,60.01 -58.33,60.01l-83 0zm0 181.15l0 -135.16 89.17 0c41.51,0 67.86,27.47 67.86,67.3 0,40.93 -25.24,67.86 -67.86,67.86l-89.17 0z"/>
   <path id="10" class="fil2" d="M6627.85 9847.08c0,116.65 89.17,207.5 203.57,207.5 114.4,0 203.02,-90.85 203.02,-207.5 0,-113.85 -88.61,-201.9 -203.02,-201.9 -114.4,0 -203.57,88.05 -203.57,201.9zm57.2 0c0,-85.8 65.05,-151.43 146.37,-151.43 80.75,0 145.82,65.63 145.82,151.43 0,88.6 -65.06,156.46 -145.82,156.46 -81.32,0 -146.37,-67.86 -146.37,-156.46z"/>
   <path class="fil2" d="M3135.12 10944.9l55.52 0 0 -146.37 89.73 0c72.34,0 123.94,-50.47 123.94,-125.63 0,-75.14 -51.6,-123.94 -123.94,-123.94l-145.25 0 0 395.94zm55.52 -194.6l0 -153.1 81.32 0c46.55,0 76.27,28.6 76.27,75.71 0,47.67 -29.72,77.39 -76.84,77.39l-80.75 0z"/>
   <polygon id="1" class="fil2" points="3473.85,10944.9 3713.87,10944.9 3713.87,10896.68 3529.36,10896.68 3529.36,10769.37 3671.25,10769.37 3671.25,10721.13 3529.36,10721.13 3529.36,10597.2 3704.34,10597.2 3704.34,10548.96 3473.85,10548.96 "/>
   <path id="2" class="fil2" d="M3758.17 10744.7c0,116.08 80.2,206.93 203.02,206.93 70.11,0 119.46,-29.17 153.11,-62.81l-29.73 -39.81c-31.97,31.97 -77.39,51.59 -121.7,51.59 -91.97,0 -147.48,-72.34 -147.48,-156.46 0,-83.57 54.39,-151.43 146.37,-151.43 40.94,0 85.24,17.39 114.4,43.19l28.05 -41.51c-38.14,-36.45 -93.66,-52.15 -144.7,-52.15 -117.77,0 -201.33,87.5 -201.33,202.46z"/>
   <polygon id="3" class="fil2" points="4276.92,10944.9 4331.89,10944.9 4331.89,10597.2 4468.16,10597.2 4468.16,10548.96 4140.65,10548.96 4140.65,10597.2 4276.92,10597.2 "/>
   <path id="4" class="fil2" d="M4451.9 10944.9l56.64 0 39.83 -113.85 149.18 0 39.81 113.85 57.2 0 -141.89 -395.94 -58.88 0 -141.89 395.94zm111.04 -159.83l44.31 -125.06c6.73,-20.75 15.14,-56.65 15.14,-56.65l1.12 0c0,0 8.98,35.9 15.71,56.65l43.74 125.06 -120.01 0z"/>
   <path id="5" class="fil2" d="M4855.12 10944.9l141.89 0c69.54,0 127.86,-38.13 127.86,-112.72 0,-44.31 -23.55,-83.57 -65.61,-95.9l0 -1.13c30.28,-15.71 49.35,-46.54 49.35,-85.24 0,-63.94 -47.67,-100.96 -114.97,-100.96l-138.52 0 0 395.94zm55.52 -229.37l0 -118.33 82.44 0c37.58,0 58.9,23.55 58.9,58.32 0,34.78 -22.44,60.01 -58.33,60.01l-83 0zm0 181.15l0 -135.16 89.17 0c41.51,0 67.86,27.47 67.86,67.3 0,40.93 -25.24,67.86 -67.86,67.86l-89.17 0z"/>
   <path id="6" class="fil2" d="M5205.07 10944.9l55.52 0 0 -146.37 89.73 0c72.34,0 123.94,-50.47 123.94,-125.63 0,-75.14 -51.6,-123.94 -123.94,-123.94l-145.25 0 0 395.94zm55.52 -194.6l0 -153.1 81.32 0c46.55,0 76.27,28.6 76.27,75.71 0,47.67 -29.72,77.39 -76.84,77.39l-80.75 0z"/>
   <path id="7" class="fil2" d="M5479.31 10944.9l56.64 0 39.83 -113.85 149.18 0 39.81 113.85 57.2 0 -141.89 -395.94 -58.88 0 -141.89 395.94zm111.04 -159.83l44.31 -125.06c6.73,-20.75 15.14,-56.65 15.14,-56.65l1.12 0c0,0 8.98,35.9 15.71,56.65l43.74 125.06 -120.01 0z"/>
   <polygon id="8" class="fil2" points="5882.53,10944.9 6183.13,10944.9 6183.13,11023.42 6233.05,11023.42 6233.05,10896.68 6187.62,10896.68 6187.62,10548.96 6132.09,10548.96 6132.09,10896.68 5938.05,10896.68 5938.05,10548.96 5882.53,10548.96 "/>
   <polygon id="9" class="fil2" points="6307.07,10944.9 6362.59,10944.9 6362.59,10548.96 6307.07,10548.96 "/>
   <path id="10" class="fil2" d="M6428.2 10944.9l62.26 0 93.08 -157.59 72.91 0 0 157.59 55.52 0 0 -395.94 -122.25 0c-38.14,0 -57.2,3.36 -74.02,10.66 -36.46,16.26 -62.26,52.15 -62.26,104.31 0,52.72 24.12,95.34 75.16,113.85l0 1.12c0,0 -3.93,5.61 -11.78,18.51l-88.61 147.5zm151.98 -204.7c-43.18,0 -70.09,-28.04 -70.09,-74.02 0,-26.35 11.78,-48.79 31.97,-60 10.66,-5.61 24.12,-8.98 51.59,-8.98l62.81 0 0 143 -76.27 0z"/>
   <path class="fil2" d="M3196.02 11274.96c24.07,-37.59 27.08,-91.72 27.08,-120.29l0 -10.15 57.14 0 0 130.44 -84.21 0zm-60.89 0l0 75.18 34.21 0 0 -45.11 140.97 0 0 45.11 33.45 0 0 -75.18 -27.06 0 0 -160.14 -128.56 0 0 34.96c0,29.32 -3.01,88.72 -29.7,125.18l-23.3 0z"/>
   <path id="1" class="fil2" d="M3367.43 11209.93c0,56.39 41.35,99.62 101.13,99.62 26.31,0 55.26,-10.15 73.67,-27.06l-15.4 -26.69c-15.04,13.54 -35.71,22.19 -56.02,22.19 -34.2,0 -63.52,-22.19 -65.4,-63.16l138.34 0c0.75,-5.26 1.5,-10.53 1.5,-15.42 0,-48.87 -28.57,-89.09 -82.32,-89.09 -54.14,0 -95.49,39.1 -95.49,99.62zm39.1 -21.42c5.26,-31.57 27.43,-50 55.62,-50 24.82,0 45.11,17.3 46.24,50l-101.86 0z"/>
   <path id="2" class="fil2" d="M3589.22 11380.22l36.46 0 0 -86.46c0,-9.78 -1.5,-16.53 -1.5,-16.53l0.75 0c13.16,20.29 34.96,32.32 59.01,32.32 50,0 86.09,-39.09 86.09,-99.62 0,-59.01 -31.95,-99.62 -83.46,-99.62 -27.81,0 -51.86,12.79 -63.9,35.71l-0.75 0c0,0 1.13,-6.39 1.13,-14.29l0 -16.92 -33.83 0 0 265.4zm35.33 -169.54c0,-48.11 26.31,-68.41 54.89,-68.41 31.57,0 53.76,26.69 53.76,68.04 0,43.23 -24.82,67.66 -54.89,67.66 -34.96,0 -53.76,-33.46 -53.76,-67.3z"/>
   <path id="3" class="fil2" d="M3802.74 11209.93c0,56.39 41.35,99.62 101.13,99.62 26.31,0 55.26,-10.15 73.67,-27.06l-15.4 -26.69c-15.04,13.54 -35.71,22.19 -56.02,22.19 -34.2,0 -63.52,-22.19 -65.4,-63.16l138.34 0c0.75,-5.26 1.5,-10.53 1.5,-15.42 0,-48.87 -28.57,-89.09 -82.32,-89.09 -54.14,0 -95.49,39.1 -95.49,99.62zm39.1 -21.42c5.26,-31.57 27.43,-50 55.62,-50 24.82,0 45.11,17.3 46.24,50l-101.86 0z"/>
   <path id="4" class="fil2" d="M4024.52 11305.04l81.2 0c41.35,0 69.91,-18.8 69.91,-54.13 0,-21.06 -12.41,-39.47 -36.08,-45.11l0 -0.38c17.28,-7.52 27.06,-23.3 27.06,-41.73 0,-31.95 -25.18,-48.87 -63.54,-48.87l-78.56 0 0 190.21zm36.46 -109.76l0 -55.26 34.58 0c22.94,0 33.83,9.02 33.83,26.31 0,17.67 -10.9,28.94 -32.7,28.94l-35.71 0zm0 84.2l0 -59.76 38.72 0c25.18,0 39.09,11.28 39.09,30.07 0,17.67 -12.39,29.69 -38.71,29.69l-39.1 0z"/>
   <polygon id="5" class="fil2" points="4216.6,11105.81 4245.56,11105.81 4245.56,11035.13 4216.6,11035.13 "/>
   <path id="6" class="fil2" d="M4279.76 11305.04l40.23 0 46.61 -68.79 31.95 0 0 68.79 36.46 0 0 -190.21 -75.93 0c-40.22,0 -68.04,20.67 -68.04,59.78 0,28.94 19.56,49.24 41.35,55.26l0 0.38c0,0 -4.51,4.88 -8.64,11.65l-43.99 63.16zm87.22 -95.48c-22.19,0 -39.1,-11.66 -39.1,-35.34 0,-24.43 15.79,-34.2 40.22,-34.2l30.45 0 0 69.54 -31.57 0z"/>
   <polygon id="7" class="fil2" points="4491.4,11305.04 4527.86,11305.04 4527.86,11223.47 4624.1,11223.47 4624.1,11305.04 4660.56,11305.04 4660.56,11114.82 4624.1,11114.82 4624.1,11192.26 4527.86,11192.26 4527.86,11114.82 4491.4,11114.82 "/>
   <path id="8" class="fil2" d="M4716.94 11305.04l34.96 0 82.32 -113.52c6.02,-9.03 15.42,-21.81 16.55,-25.18l0.75 0c0,3 -1.13,16.15 -1.13,25.18l0 113.52 35.33 0 0 -190.21 -35.33 0 -81.95 113.53c-6.39,9.02 -15.4,22.17 -16.92,25.55l-0.75 0c0.38,-1.88 1.13,-15.4 1.13,-25.55l0 -113.53 -34.96 0 0 190.21z"/>
   <path id="9" class="fil2" d="M4919.93 11305.04l41.35 0 39.85 -63.52c3.01,-4.52 5.64,-10.16 5.64,-10.16l0.75 0c0,0 3.01,5.64 6.02,10.16l39.84 63.52 41.35 0 -65.03 -97.74 61.28 -92.48 -41.72 0 -35.34 57.9c-2.63,4.89 -6.39,11.28 -6.39,11.28l-0.75 0c0,0 -3.39,-6.39 -6.02,-11.28l-35.33 -57.9 -41.73 0 61.28 92.48 -65.03 97.74z"/>
   <path id="10" class="fil2" d="M5215.02 11195.64c0,65.78 28.94,113.9 93.23,113.9 53.74,0 89.84,-37.59 89.84,-90.22 0,-53.76 -33.08,-87.59 -80.82,-87.59 -25.18,0 -50.37,8.28 -67.28,33.83l-0.76 0c2.64,-36.46 20.67,-58.63 58.65,-75.93l72.92 -30.44 -12.03 -30.07 -68.03 29.31c-66.16,27.83 -85.71,69.17 -85.71,137.21zm37.96 23.68c0,-33.45 22.94,-58.63 55.27,-58.63 28.56,0 53,22.17 53,59.38 0,36.84 -24.43,58.65 -54.51,58.65 -29.32,0 -53.76,-21.81 -53.76,-59.4z"/>
   <path id="11" class="fil2" d="M5425.9 11344.51l-12.78 27.81c0,0 15.4,11.66 36.46,11.66 26.68,0 50.37,-15.04 61.64,-44.73l89.47 -224.43 -39.47 0 -46.24 124.81c-3.38,9.77 -6.39,22.55 -6.39,22.55l-0.75 0c0,0 -3.39,-13.54 -7.15,-22.94l-47.74 -124.43 -40.97 0 79.69 187.95 -9.4 21.81c-7.14,17.3 -19.54,28.19 -34.58,28.19 -11.28,0 -21.81,-8.27 -21.81,-8.27z"/>
   <path id="12" class="fil2" d="M5660.08 11274.96c24.07,-37.59 27.08,-91.72 27.08,-120.29l0 -10.15 57.14 0 0 130.44 -84.21 0zm-60.89 0l0 75.18 34.21 0 0 -45.11 140.97 0 0 45.11 33.45 0 0 -75.18 -27.06 0 0 -160.14 -128.56 0 0 34.96c0,29.32 -3.01,88.72 -29.7,125.18l-23.3 0z"/>
   <path id="13" class="fil2" d="M5846.15 11305.04l34.96 0 82.32 -113.52c6.02,-9.03 15.42,-21.81 16.55,-25.18l0.75 0c0,3 -1.13,16.15 -1.13,25.18l0 113.52 35.33 0 0 -190.21 -35.33 0 -81.95 113.53c-6.39,9.02 -15.4,22.17 -16.92,25.55l-0.75 0c0.38,-1.88 1.13,-15.4 1.13,-25.55l0 -113.53 -34.96 0 0 190.21z"/>
   <polygon id="14" class="fil2" points="6070.95,11305.04 6107.41,11305.04 6107.41,11223.47 6203.64,11223.47 6203.64,11305.04 6240.1,11305.04 6240.1,11114.82 6203.64,11114.82 6203.64,11192.26 6107.41,11192.26 6107.41,11114.82 6070.95,11114.82 "/>
   <polygon id="15" class="fil2" points="6296.49,11305.04 6332.95,11305.04 6332.95,11222.72 6360.39,11222.72 6417.16,11305.04 6460.39,11305.04 6389.34,11206.17 6389.34,11205.42 6452.87,11114.82 6411.52,11114.82 6359.64,11191.52 6332.95,11191.52 6332.95,11114.82 6296.49,11114.82 "/>
   <path id="16" class="fil2" d="M6491.96 11076.48l37.59 0 0 -36.84 -37.59 0 0 36.84zm0.75 228.55l36.46 0 0 -190.21 -36.46 0 0 190.21z"/>
   <path id="17" class="fil2" d="M6585.19 11305.04l81.2 0c41.35,0 69.91,-18.8 69.91,-54.13 0,-21.06 -12.41,-39.47 -36.08,-45.11l0 -0.38c17.28,-7.52 27.06,-23.3 27.06,-41.73 0,-31.95 -25.18,-48.87 -63.54,-48.87l-78.56 0 0 190.21zm36.46 -109.76l0 -55.26 34.58 0c22.94,0 33.83,9.02 33.83,26.31 0,17.67 -10.9,28.94 -32.7,28.94l-35.71 0zm0 84.2l0 -59.76 38.72 0c25.18,0 39.09,11.28 39.09,30.07 0,17.67 -12.39,29.69 -38.71,29.69l-39.1 0z"/>
   <circle class="fil3" cx="2775.78" cy="10728.24" r="60.48"/>
   <circle class="fil3" cx="2775.78" cy="9826.15" r="60.48"/>
  </g>
 </g>
</svg>
